<?xml version="1.0" encoding="UTF-8"?>
<svg width="320" height="220" viewBox="0 0 320 220" fill="none" xmlns="http://www.w3.org/2000/svg">
  <rect width="320" height="220" rx="32" fill="#E0F7FA"/>
  <!-- Mother -->
  <ellipse cx="80" cy="150" rx="32" ry="44" fill="#99F6E4"/>
  <circle cx="80" cy="120" r="18" fill="#2DD4BF"/>
  <ellipse cx="80" cy="170" rx="18" ry="10" fill="#5EEAD4"/>
  <!-- Child -->
  <ellipse cx="160" cy="170" rx="20" ry="28" fill="#A7F3D0"/>
  <circle cx="160" cy="150" r="12" fill="#14B8A6"/>
  <ellipse cx="160" cy="185" rx="12" ry="6" fill="#99F6E4"/>
  <!-- Health Worker/Cadre -->
  <ellipse cx="240" cy="150" rx="28" ry="40" fill="#67E8F9"/>
  <circle cx="240" cy="120" r="16" fill="#06B6D4"/>
  <ellipse cx="240" cy="170" rx="14" ry="8" fill="#5EEAD4"/>
  <!-- Uplifting background shapes -->
  <ellipse cx="160" cy="210" rx="120" ry="18" fill="#CCFBF1"/>
  <ellipse cx="60" cy="60" rx="18" ry="8" fill="#99F6E4" fill-opacity="0.4"/>
  <ellipse cx="260" cy="40" rx="14" ry="6" fill="#67E8F9" fill-opacity="0.3"/>
  <!-- Heart accent -->
  <path d="M160 110c4-8 16-8 20 0 4 8-8 16-20 24-12-8-24-16-20-24 4-8 16-8 20 0z" fill="#F472B6" fill-opacity="0.7"/>
  <!-- Title accent -->
  <rect x="100" y="30" width="120" height="12" rx="6" fill="#5EEAD4" fill-opacity="0.2"/>
</svg> 